<svg width="84" height="84" viewBox="0 0 84 84" fill="none" xmlns="http://www.w3.org/2000/svg">
<rect width="84" height="84" rx="15" fill="#2C1DB1"/>
<path d="M66.3237 59.9883L60.6428 62.83L55.353 50.4348H39.223C38.235 50.4348 37.2875 50.0408 36.5889 49.3396C35.8902 48.6384 35.4978 47.6873 35.4978 46.6957V35.4783C35.4978 34.4866 35.8902 33.5355 36.5889 32.8343C37.2875 32.1331 38.235 31.7391 39.223 31.7391C40.2109 31.7391 41.1584 32.1331 41.8571 32.8343C42.5557 33.5355 42.9481 34.4866 42.9481 35.4783V42.9565H55.9863V39.2174H46.6733V35.4783C46.6733 33.4949 45.8884 31.5928 44.4912 30.1903C43.0939 28.7879 41.1989 28 39.223 28C37.247 28 35.352 28.7879 33.9547 30.1903C32.5575 31.5928 31.7726 33.4949 31.7726 35.4783V37.3478C28.6165 37.3461 25.5241 38.2387 22.851 39.9229C20.178 41.6071 18.0329 44.0145 16.6626 46.8682C15.2922 49.7219 14.7523 52.906 15.105 56.054C15.4576 59.202 16.6885 62.1862 18.656 64.6632C20.6234 67.1402 23.2476 69.0094 26.2265 70.0557C29.2055 71.102 32.4182 71.283 35.495 70.5778C38.5719 69.8726 41.3879 68.3099 43.6192 66.0694C45.8504 63.8289 47.4062 61.0017 48.1075 57.913H44.2706C43.5797 60.2388 42.2582 62.326 40.4536 63.9413C38.649 65.5565 36.4325 66.6363 34.0517 67.06C31.671 67.4836 29.2197 67.2344 26.9719 66.3401C24.7242 65.4459 22.7684 63.9419 21.3232 61.9962C19.8779 60.0505 19.0002 57.7398 18.7881 55.3222C18.5759 52.9046 19.0377 50.4754 20.1218 48.3061C21.206 46.1368 22.8697 44.3128 24.9271 43.0379C26.9846 41.7631 29.3547 41.0876 31.7726 41.087V46.6957C31.7726 48.679 32.5575 50.5811 33.9547 51.9836C35.352 53.386 37.247 54.1739 39.223 54.1739H52.8944L58.7802 67.9526L68 63.3161L66.3237 59.9883Z" fill="#FFF8EA"/>
<path d="M39.5 26C38.2144 26 36.9577 25.6188 35.8888 24.9046C34.8199 24.1903 33.9868 23.1752 33.4948 21.9874C33.0028 20.7997 32.8741 19.4928 33.1249 18.2319C33.3757 16.971 33.9948 15.8128 34.9038 14.9038C35.8129 13.9948 36.971 13.3757 38.2319 13.1249C39.4928 12.8741 40.7997 13.0028 41.9874 13.4948C43.1752 13.9868 44.1903 14.8199 44.9046 15.8888C45.6188 16.9577 46 18.2144 46 19.5C46 21.2239 45.3152 22.8772 44.0962 24.0962C42.8772 25.3152 41.2239 26 39.5 26ZM39.5 16.7143C38.949 16.7143 38.4105 16.8777 37.9523 17.1838C37.4942 17.4899 37.1372 17.9249 36.9263 18.434C36.7155 18.943 36.6603 19.5031 36.7678 20.0435C36.8753 20.5838 37.1406 21.0802 37.5302 21.4698C37.9198 21.8594 38.4162 22.1247 38.9565 22.2322C39.4969 22.3397 40.057 22.2845 40.566 22.0737C41.0751 21.8628 41.5101 21.5058 41.8162 21.0477C42.1223 20.5896 42.2857 20.051 42.2857 19.5C42.2857 18.7612 41.9922 18.0526 41.4698 17.5302C40.9474 17.0078 40.2388 16.7143 39.5 16.7143Z" fill="#FFF8EA"/>
</svg>
