<svg width="47" height="47" viewBox="0 0 47 47" fill="none" xmlns="http://www.w3.org/2000/svg">
<path d="M25.2972 42.9495L23.1753 40.8389L18.1113 35.8018L11.9602 29.6834L6.6721 24.4234C5.8138 23.5697 4.9698 22.7065 4.09719 21.8622L4.05905 21.8243V25.1776L6.18096 23.0669L11.2449 18.0299L17.3961 11.9114L22.6842 6.65148C23.5425 5.79774 24.4103 4.95349 25.2591 4.09027L25.2972 4.05233C25.7311 3.62071 25.9934 2.98516 25.9934 2.37331C25.9934 1.78992 25.7359 1.09745 25.2972 0.694297C24.8442 0.281657 24.2482 -0.0266363 23.6092 0.0018216C22.975 0.0302795 22.379 0.243714 21.9212 0.694297L19.7993 2.80492L14.7354 7.84197L8.5842 13.9604L3.29611 19.2204C2.43781 20.0741 1.56998 20.9184 0.721211 21.7816L0.683064 21.8195C-0.227688 22.7254 -0.227688 24.2669 0.683064 25.1728C1.39355 25.8843 2.10403 26.5862 2.80974 27.2929L7.87372 32.33L14.0249 38.4484L19.313 43.7084C20.1713 44.5621 21.02 45.4253 21.8879 46.2696L21.926 46.3075C22.3599 46.7391 22.9989 47 23.614 47C24.2005 47 24.8967 46.7439 25.302 46.3075C25.7168 45.8569 26.0268 45.2641 25.9982 44.6285C25.9648 43.9977 25.755 43.4048 25.2972 42.9495Z" fill="black"/>
<path d="M2.37706 25.9978H42.908C43.4543 25.9978 44.0054 26.0028 44.5517 25.9978H44.6229C45.231 25.9978 45.8723 25.718 46.3046 25.2684C46.7179 24.8338 47.0267 24.1244 46.9982 23.5C46.9697 22.8556 46.7702 22.1862 46.3046 21.7316C45.8391 21.282 45.269 21.0022 44.6229 21.0022H4.09197C3.54567 21.0022 2.99462 20.9972 2.44831 21.0022H2.37706C1.769 21.0022 1.12768 21.282 0.695392 21.7316C0.282102 22.1662 -0.0266783 22.8756 0.00182447 23.5C0.0303273 24.1444 0.229847 24.8138 0.695392 25.2684C1.16569 25.713 1.73574 25.9978 2.37706 25.9978Z" fill="black"/>
</svg>
