<svg width="27" height="27" viewBox="0 0 27 27" fill="none" xmlns="http://www.w3.org/2000/svg">
<path d="M17.55 12.15H14.85V6.75C14.85 6.39196 14.7078 6.04858 14.4546 5.7954C14.2014 5.54223 13.858 5.4 13.5 5.4C13.142 5.4 12.7986 5.54223 12.5454 5.7954C12.2922 6.04858 12.15 6.39196 12.15 6.75V13.5C12.15 13.858 12.2922 14.2014 12.5454 14.4546C12.7986 14.7078 13.142 14.85 13.5 14.85H17.55C17.908 14.85 18.2514 14.7078 18.5046 14.4546C18.7578 14.2014 18.9 13.858 18.9 13.5C18.9 13.142 18.7578 12.7986 18.5046 12.5454C18.2514 12.2922 17.908 12.15 17.55 12.15ZM13.5 0C10.83 0 8.21987 0.791761 5.99981 2.27516C3.77974 3.75856 2.04942 5.86697 1.02763 8.33377C0.00584933 10.8006 -0.261496 13.515 0.259405 16.1337C0.780305 18.7525 2.06606 21.1579 3.95406 23.0459C5.84207 24.9339 8.24754 26.2197 10.8663 26.7406C13.485 27.2615 16.1994 26.9942 18.6662 25.9724C21.133 24.9506 23.2414 23.2203 24.7248 21.0002C26.2082 18.7801 27 16.17 27 13.5C26.996 9.9208 25.5724 6.48933 23.0415 3.95845C20.5107 1.42758 17.0792 0.00398058 13.5 0ZM13.5 24.3C11.364 24.3 9.2759 23.6666 7.49985 22.4799C5.7238 21.2931 4.33953 19.6064 3.52211 17.633C2.70468 15.6595 2.4908 13.488 2.90753 11.393C3.32425 9.29803 4.35284 7.37365 5.86325 5.86325C7.37366 4.35284 9.29803 3.32424 11.393 2.90752C13.488 2.4908 15.6595 2.70467 17.633 3.5221C19.6064 4.33953 21.2932 5.72379 22.4799 7.49984C23.6666 9.27589 24.3 11.364 24.3 13.5C24.2967 16.3633 23.1578 19.1084 21.1331 21.1331C19.1085 23.1578 16.3633 24.2967 13.5 24.3Z" fill="#1331A1"/>
</svg>
