<svg width="73" height="73" viewBox="0 0 73 73" fill="none" xmlns="http://www.w3.org/2000/svg">
<path d="M36.5 21.8125C28.3887 21.8125 21.8125 28.3866 21.8125 36.5C21.8125 44.6134 28.3887 51.1875 36.5 51.1875C44.6111 51.1875 51.1875 44.6134 51.1875 36.5C51.1875 28.3866 44.6111 21.8125 36.5 21.8125ZM32.9375 62.6152L32.1045 62.4746C28.4822 61.863 25.1455 60.4504 22.1729 58.5029L21.54 58.0879L20.9688 58.585L11.2197 67.0645L5.89258 60.4854L14.749 52.7822L15.4248 52.1943L14.915 51.459C12.7597 48.3444 11.2258 44.777 10.5703 40.8955L10.4297 40.0625H1V32.9375H10.3848L10.5254 32.1035C11.1806 28.2192 12.7256 24.6448 14.8975 21.5264L15.4111 20.7891L14.7334 20.2002L5.89355 12.5137L11.2197 5.93359L20.9863 14.4287L21.5557 14.9238L22.1875 14.5127C25.1584 12.5824 28.4913 11.1822 32.1045 10.5703L32.9375 10.4287V1H40.0625V10.4287L40.8955 10.5703C44.5087 11.1822 47.8416 12.5824 50.8125 14.5127L51.4443 14.9238L52.0127 14.4287L61.7793 5.93359L67.1055 12.5137L58.2666 20.2002L57.5889 20.7891L58.1016 21.5264C60.2737 24.6448 61.8193 28.2191 62.4746 32.1035L62.6152 32.9375H72V40.0625H62.6152L62.4746 40.8965C61.8194 44.7809 60.2746 48.3553 58.1025 51.4736L57.5889 52.2109L58.2666 52.7998L67.1055 60.4854L61.7793 67.0654L52.0137 58.5713L51.4443 58.0762L50.8125 58.4873C47.8415 60.4177 44.5085 61.818 40.8955 62.4297L40.0625 62.5713V72H32.9375V62.6152Z" fill="white" stroke="black" stroke-width="2"/>
</svg>
