<svg width="95" height="73" viewBox="0 0 95 73" fill="none" xmlns="http://www.w3.org/2000/svg">
<path d="M1.63867 70.8262H93.3613C93.7794 70.8262 93.9998 71.1234 94 71.3604V71.4658C93.9997 71.7028 93.7793 72 93.3613 72H1.63867C1.22067 72 1.00025 71.7028 1 71.4658V71.3604C1.0002 71.1234 1.22062 70.8262 1.63867 70.8262ZM90.833 13.6953V67.2393H80.167V13.6953H90.833ZM71.833 34.3262V67.2393H61.167V34.3262H71.833ZM52.833 1V67.2393H42.167V1H52.833ZM33.833 18.4561V67.2393H23.167V18.4561H33.833ZM14.833 42.2607V67.2393H4.16699V42.2607H14.833Z" fill="white" stroke="black" stroke-width="2"/>
</svg>
