<svg width="26" height="32" viewBox="0 0 26 32" fill="none" xmlns="http://www.w3.org/2000/svg">
<path d="M12.7691 17.0769C15.1482 17.0769 17.0768 15.1483 17.0768 12.7692C17.0768 10.3902 15.1482 8.46153 12.7691 8.46153C10.39 8.46153 8.46143 10.3902 8.46143 12.7692C8.46143 15.1483 10.39 17.0769 12.7691 17.0769Z" stroke="#1331A1" stroke-width="3" stroke-linecap="round" stroke-linejoin="round"/>
<path d="M23.5385 12.7692C23.5385 22.4615 12.7692 30 12.7692 30C12.7692 30 2 22.4615 2 12.7692C2 9.91305 3.13461 7.17386 5.15423 5.15423C7.17386 3.13461 9.91305 2 12.7692 2C15.6254 2 18.3646 3.13461 20.3842 5.15423C22.4039 7.17386 23.5385 9.91305 23.5385 12.7692Z" stroke="#1331A1" stroke-width="3" stroke-linecap="round" stroke-linejoin="round"/>
</svg>
