<svg width="21" height="26" viewBox="0 0 21 26" fill="none" xmlns="http://www.w3.org/2000/svg">
<path d="M16.481 5.77778C16.481 2.62626 13.852 0 10.5657 0C7.27948 0 4.65048 2.62626 4.65048 5.77778C4.65048 8.92929 7.27948 11.5556 10.5657 11.5556C13.852 11.5556 16.481 8.92929 16.481 5.77778ZM7.27948 5.77778C7.27948 4.07071 8.72543 2.62626 10.5657 2.62626C12.406 2.62626 13.852 4.07071 13.852 5.77778C13.852 7.48485 12.406 8.92929 10.5657 8.92929C8.72543 8.92929 7.27948 7.48485 7.27948 5.77778ZM0.838427 18.5152L0.181177 21.0101C-0.213173 22.1919 0.0497267 23.505 0.838427 24.5556C1.62713 25.4747 2.67873 26 3.99323 26H17.1382C18.3213 26 19.5043 25.4747 20.1616 24.4242C20.9503 23.3737 21.2132 22.0606 20.8188 20.8788L20.1616 18.3838C19.3729 15.101 16.481 12.8687 13.1947 12.8687H7.93673C4.65048 12.8687 1.75858 15.101 0.838427 18.5152ZM2.67873 21.6667L3.33598 19.1717C3.99323 16.9394 5.83353 15.495 7.93673 15.495H13.1947C15.2979 15.495 17.1382 16.9394 17.7955 19.1717L18.4527 21.6667C18.5842 22.0606 18.4527 22.5859 18.1898 22.9798C18.0584 23.1111 17.664 23.3737 17.1382 23.3737H3.99323C3.46743 23.3737 3.20453 23.1111 3.07308 22.8485C2.67873 22.5859 2.54728 22.0606 2.67873 21.6667Z" fill="#1331A1"/>
</svg>
